HIERARCHY
ROOT Hips
{
	OFFSET -0.001795 -0.223333 0.028219
	CHANNELS 6 Xposition Yposition Zposition Zrotation Yrotation Xrotation 
	JOINT LeftUpLeg
	{
		OFFSET 0.069520 -0.091406 -0.006815
		CHANNELS 3 Zrotation Yrotation Xrotation
		JOINT LeftLeg
		{
			OFFSET 0.034277 -0.375199 -0.004496
			CHANNELS 3 Zrotation Yrotation Xrotation
			JOINT LeftFoot
			{
				OFFSET -0.013596 -0.397961 -0.043693
				CHANNELS 3 Zrotation Yrotation Xrotation
				JOINT LeftToe
				{
					OFFSET 0.026358 -0.055791 0.119288
					CHANNELS 3 Zrotation Yrotation Xrotation
					End Site
					{
						OFFSET 0.000000 0.000000 0.000000
					}
				}
			}
		}
	}
	JOINT RightUpLeg
	{
		OFFSET -0.067670 -0.090522 -0.004320
		CHANNELS 3 Zrotation Yrotation Xrotation
		JOINT RightLeg
		{
			OFFSET -0.038290 -0.382569 -0.008850
			CHANNELS 3 Zrotation Yrotation Xrotation
			JOINT RightFoot
			{
				OFFSET 0.015774 -0.398415 -0.042312
				CHANNELS 3 Zrotation Yrotation Xrotation
				JOINT RightToe
				{
					OFFSET -0.025372 -0.048144 0.123348
					CHANNELS 3 Zrotation Yrotation Xrotation
					End Site
					{
						OFFSET 0.000000 0.000000 0.000000
					}
				}
			}
		}
	}
	JOINT Spine
	{
		OFFSET -0.002533 0.108963 -0.026696
		CHANNELS 3 Zrotation Yrotation Xrotation
		JOINT Spine1
		{
			OFFSET 0.005487 0.135180 0.001092
			CHANNELS 3 Zrotation Yrotation Xrotation
			JOINT Spine2
			{
				OFFSET 0.001457 0.052922 0.025425
				CHANNELS 3 Zrotation Yrotation Xrotation
				JOINT Neck
				{
					OFFSET -0.002778 0.213870 -0.042857
					CHANNELS 3 Zrotation Yrotation Xrotation
					JOINT Head
					{
						OFFSET 0.005152 0.064970 0.051349
						CHANNELS 3 Zrotation Yrotation Xrotation
						End Site
						{
							OFFSET 0.000000 0.000000 0.000000
						}
					}
				}
				JOINT LeftShoulder
				{
					OFFSET 0.078845 0.121749 -0.034090
					CHANNELS 3 Zrotation Yrotation Xrotation
					JOINT LeftArm
					{
						OFFSET 0.090977 0.030469 -0.008868
						CHANNELS 3 Zrotation Yrotation Xrotation
						JOINT LeftForeArm
						{
							OFFSET 0.259612 -0.012772 -0.027456
							CHANNELS 3 Zrotation Yrotation Xrotation
							JOINT LeftHand
							{
								OFFSET 0.249234 0.008986 -0.001171
								CHANNELS 3 Zrotation Yrotation Xrotation
								End Site
								{
									OFFSET 0.000000 0.000000 0.000000
								}
							}
						}
					}
				}
				JOINT RightShoulder
				{
					OFFSET -0.081759 0.118833 -0.038615
					CHANNELS 3 Zrotation Yrotation Xrotation
					JOINT RightArm
					{
						OFFSET -0.096012 0.032551 -0.009143
						CHANNELS 3 Zrotation Yrotation Xrotation
						JOINT RightForeArm
						{
							OFFSET -0.253742 -0.013329 -0.021401
							CHANNELS 3 Zrotation Yrotation Xrotation
							JOINT RightHand
							{
								OFFSET -0.255298 0.007772 -0.005559
								CHANNELS 3 Zrotation Yrotation Xrotation
								End Site
								{
									OFFSET 0.000000 0.000000 0.000000
								}
							}
						}
					}
				}
			}
		}
	}
}
MOTION
Frames: 15
Frame Time: 0.050000
0.000000 0.964659 0.000000 -1.003155 5.465618 3.173430 2.082665 -0.193364 -1.891537 0.634520 0.012509 -1.870144 -1.180929 2.518684 9.932608 0.000000 0.000000 0.000000 -0.516104 0.499680 -5.033449 -1.871303 0.262705 0.906362 1.695701 -0.160033 10.032840 0.000000 0.000000 0.000000 0.597757 -0.054400 0.932872 0.829661 -0.106251 -5.778394 -0.597015 -1.834489 9.718111 1.914870 0.000842 -15.477550 0.000000 0.000000 0.000000 -7.117345 1.314215 -1.233048 -49.064084 -6.944754 -3.518713 -0.439839 -7.290763 0.295433 0.000000 0.000000 0.000000 6.947336 -1.773208 -1.177135 56.038054 7.366404 -2.414066 -3.555469 4.164396 0.097094 0.000000 0.000000 0.000000 
0.001235 0.964010 0.001198 -1.186114 5.674967 3.321644 2.151441 -0.209380 -2.088570 0.724818 0.029189 -2.473450 -1.039797 2.676779 9.679807 0.000000 0.000000 0.000000 -1.140494 0.475766 -4.927518 -1.257771 0.178925 0.711706 1.700520 -0.041126 9.820025 0.000000 0.000000 0.000000 0.879725 -0.065179 0.986011 0.060506 0.212510 -5.681736 0.189006 -2.309650 9.238401 1.116636 0.548464 -16.690240 0.000000 0.000000 0.000000 -6.910355 1.362425 -1.191615 -50.800293 -7.035970 -3.549548 1.279253 -6.344921 0.174804 0.000000 0.000000 0.000000 6.728769 -2.537403 -1.523835 56.753340 6.879358 -2.631906 -3.893400 5.211880 0.090654 0.000000 0.000000 0.000000 
0.002490 0.963152 0.002388 -1.055740 5.602923 3.333139 1.937896 -0.190130 -1.866088 0.660347 0.006160 -1.757620 -0.988389 2.192973 8.370204 0.000000 0.000000 0.000000 -1.384895 0.462032 -4.836785 -0.858588 0.138068 0.884007 2.110061 1.170349 8.882511 0.000000 0.000000 0.000000 1.193712 -0.075451 1.013573 -0.009543 0.292622 -7.080203 -0.420977 -1.999016 10.667529 0.936281 0.739722 -17.248081 0.000000 0.000000 0.000000 -6.483133 1.335163 -1.150821 -51.687644 -6.632596 -3.920690 1.178077 -8.223303 0.231929 0.000000 0.000000 0.000000 7.510040 -2.329138 -1.457752 56.404175 6.151559 -3.082417 -3.249285 5.260478 0.108082 0.000000 0.000000 0.000000 
0.003504 0.963522 0.003603 -1.287122 5.838699 3.332468 2.096960 -0.222539 -2.281183 0.721690 -0.014295 -1.367001 -1.375840 1.465726 8.222296 0.000000 0.000000 0.000000 -1.485887 0.484304 -5.129599 -0.640054 0.127800 1.280002 2.577285 2.060691 9.169589 0.000000 0.000000 0.000000 1.076250 -0.054866 0.668594 -0.230733 0.359865 -6.346231 0.347791 -2.975954 10.503943 -0.328859 1.357012 -16.588629 0.000000 0.000000 0.000000 -5.834575 2.389213 -1.432419 -53.389402 -6.618370 -3.987985 1.927359 -8.077617 0.191691 0.000000 0.000000 0.000000 6.861258 -2.028028 -1.356312 57.075164 5.872969 -3.281145 -3.526167 4.991623 0.095333 0.000000 0.000000 0.000000 
0.004261 0.963606 0.004874 -1.085620 6.039649 3.293577 2.049326 -0.205471 -2.047782 0.481784 0.009061 -1.436390 -1.583898 1.119890 8.233294 0.000000 0.000000 0.000000 -1.799971 0.483803 -5.241123 -0.550173 0.135638 1.760546 2.149390 1.247104 9.028472 0.000000 0.000000 0.000000 0.932973 -0.058151 0.818946 0.040962 0.276895 -6.998165 -0.041928 -2.754111 10.868181 -0.436763 1.434231 -15.950216 0.000000 0.000000 0.000000 -5.351874 2.244577 -1.345677 -54.221189 -5.929385 -4.411269 1.711113 -8.865250 0.221570 0.000000 0.000000 0.000000 6.814260 -2.273202 -1.414938 57.163985 4.607405 -3.887999 -3.005237 6.101822 0.116797 0.000000 0.000000 0.000000 
0.004776 0.963449 0.006235 -1.160375 6.581170 3.115109 1.975698 -0.221062 -2.277672 0.924654 -0.062612 -0.617434 -1.672062 0.789499 7.756410 0.000000 0.000000 0.000000 -1.728332 0.481953 -5.225474 -0.692965 0.161708 1.938795 2.164689 1.379259 8.944766 0.000000 0.000000 0.000000 0.812943 -0.063238 1.005348 0.176134 0.237355 -7.112147 0.272425 -3.522680 11.102494 -1.130425 1.820718 -16.185494 0.000000 0.000000 0.000000 -5.378439 3.242269 -1.709055 -55.085209 -5.478229 -4.678123 2.115646 -8.956994 0.204301 0.000000 0.000000 0.000000 6.015825 -2.477426 -1.455908 58.089227 4.383433 -4.109386 -4.007548 5.711552 0.086862 0.000000 0.000000 0.000000 
0.005049 0.962913 0.007695 -1.131939 6.516310 3.197822 2.092852 -0.213859 -2.149700 0.772433 -0.036417 -0.913815 -1.573581 1.133068 8.119338 0.000000 0.000000 0.000000 -1.719945 0.497662 -5.408524 -0.928584 0.201803 2.141271 2.171974 1.439541 8.817435 0.000000 0.000000 0.000000 0.812108 -0.067208 1.084272 0.253568 0.201256 -7.021720 0.112159 -3.631448 10.951796 -1.060682 1.761869 -16.155742 0.000000 0.000000 0.000000 -5.179898 3.670300 -1.849082 -55.715801 -4.182667 -5.296980 1.819634 -9.198771 0.233115 0.000000 0.000000 0.000000 5.677336 -2.860877 -1.586174 58.573420 3.834548 -4.398496 -4.187005 5.767965 0.081432 0.000000 0.000000 0.000000 
0.005211 0.962666 0.009209 -1.204449 6.570645 3.279636 2.037250 -0.222428 -2.274773 1.114686 -0.075080 -0.726222 -1.388834 1.347583 7.863878 0.000000 0.000000 0.000000 -1.545894 0.499625 -5.362279 -1.139631 0.218079 1.862648 1.923563 0.938770 8.782361 0.000000 0.000000 0.000000 0.755214 -0.077591 1.329875 0.374530 0.163474 -7.268702 0.054275 -3.769945 10.886863 -0.976652 1.666421 -15.531518 0.000000 0.000000 0.000000 -4.480233 4.289597 -2.003343 -55.874546 -2.490001 -6.066182 1.753758 -9.626332 0.250201 0.000000 0.000000 0.000000 4.536732 -3.572339 -1.750096 59.247901 2.865091 -4.912507 -4.557285 5.335304 0.074349 0.000000 0.000000 0.000000 
0.005345 0.962998 0.010516 -1.248867 6.568914 3.556511 2.104056 -0.229527 -2.343540 1.180702 -0.056256 -1.274970 -1.362526 1.610614 8.327214 0.000000 0.000000 0.000000 -1.500468 0.502622 -5.365378 -1.213467 0.211231 1.498085 1.725686 0.483371 8.890479 0.000000 0.000000 0.000000 0.833134 -0.073934 1.185152 0.234778 0.217462 -7.231933 0.222499 -3.911434 10.701388 -0.829399 1.540667 -15.280131 0.000000 0.000000 0.000000 -3.794759 4.983165 -2.179035 -56.240328 -0.931927 -6.782984 1.436222 -9.497018 0.272746 0.000000 0.000000 0.000000 3.517754 -4.094891 -1.841952 59.636603 2.239027 -5.248876 -5.264225 4.296116 0.071040 0.000000 0.000000 0.000000 
0.005567 0.963077 0.011578 -1.176449 6.860215 4.034461 1.930129 -0.252896 -2.668118 1.434334 -0.062196 -1.594784 -1.350325 1.769320 8.562450 0.000000 0.000000 0.000000 -1.554535 0.520040 -5.576551 -1.288594 0.194810 0.933016 1.330122 -0.430699 9.231902 0.000000 0.000000 0.000000 0.811840 -0.063994 0.960067 0.299282 0.211137 -7.602223 0.138024 -4.112732 10.764260 -0.875861 1.559065 -15.121570 0.000000 0.000000 0.000000 -2.729566 5.706065 -2.313432 -56.459420 0.998858 -7.687634 0.826328 -9.924377 0.333808 0.000000 0.000000 0.000000 2.057868 -4.773175 -1.919196 60.378919 0.575801 -6.141181 -5.642179 4.168097 0.068717 0.000000 0.000000 0.000000 
0.005724 0.963133 0.012335 -1.208385 7.221404 4.233187 1.985860 -0.271299 -2.893054 1.457458 -0.054894 -1.771484 -1.326838 1.896698 8.671519 0.000000 0.000000 0.000000 -1.542569 0.527648 -5.664051 -1.381621 0.199693 0.779782 1.062207 -0.952589 9.263913 0.000000 0.000000 0.000000 0.860559 -0.070600 1.051946 0.262606 0.236511 -7.713447 0.174114 -4.285959 10.823115 -0.845313 1.560734 -15.490565 0.000000 0.000000 0.000000 -2.049142 6.348025 -2.458339 -56.409613 2.347636 -8.303833 0.591612 -9.371015 0.331755 0.000000 0.000000 0.000000 1.105319 -5.615605 -2.104263 60.248318 -0.758567 -6.789565 -5.332553 3.663551 0.079248 0.000000 0.000000 0.000000 
0.005775 0.963011 0.012989 -1.253996 7.533809 4.571619 2.127580 -0.304603 -3.304929 1.266147 -0.041031 -1.719601 -0.984327 2.371289 8.337501 0.000000 0.000000 0.000000 -1.524795 0.546631 -5.874335 -1.296599 0.177028 0.514229 0.532884 -2.002090 9.229725 0.000000 0.000000 0.000000 0.918330 -0.075501 1.087177 0.189422 0.270999 -7.738895 0.272310 -4.468148 10.688439 -0.587018 1.396260 -15.543754 0.000000 0.000000 0.000000 -0.993210 7.425850 -2.696153 -56.465747 4.425827 -9.237320 0.241029 -9.520735 0.364007 0.000000 0.000000 0.000000 -0.350970 -6.884835 -2.352919 60.646999 -2.811850 -7.845581 -4.837039 4.466626 0.074362 0.000000 0.000000 0.000000 
0.005596 0.962944 0.013733 -1.138180 7.714263 4.930692 2.031553 -0.333128 -3.687268 1.249791 -0.030860 -1.908066 -1.247309 1.982559 8.459947 0.000000 0.000000 0.000000 -1.601899 0.577566 -6.275638 -1.192101 0.170231 0.642015 0.306540 -2.537080 9.526626 0.000000 0.000000 0.000000 0.860185 -0.077854 1.151586 0.096319 0.310109 -7.734209 0.305324 -4.516629 10.558056 -0.607695 1.414889 -15.564596 0.000000 0.000000 0.000000 0.141048 8.881384 -3.030635 -55.443750 6.040332 -9.752647 -0.972452 -9.586754 0.458927 0.000000 0.000000 0.000000 -1.402048 -8.379864 -2.707461 60.009203 -5.153368 -8.881440 -3.113658 5.335006 0.103337 0.000000 0.000000 0.000000 
0.005302 0.963026 0.014812 -1.037110 8.546295 5.228436 2.063025 -0.360492 -4.024534 1.214190 -0.031728 -1.784713 -1.420509 1.603251 8.141516 0.000000 0.000000 0.000000 -1.711629 0.588655 -6.486383 -1.201571 0.170110 0.588749 -0.117333 -3.350333 9.689779 0.000000 0.000000 0.000000 0.730972 -0.075238 1.173657 0.324850 0.244355 -7.954808 0.157013 -5.068206 10.802125 -0.484148 1.319433 -15.430379 0.000000 0.000000 0.000000 1.055999 10.297342 -3.364236 -53.998683 8.624465 -10.582854 -2.032531 -8.973606 0.505149 0.000000 0.000000 0.000000 -2.474019 -9.994938 -3.072187 58.277516 -8.241642 -10.066812 -0.917200 6.708791 0.187137 0.000000 0.000000 0.000000 
0.004912 0.963680 0.016389 -0.946820 8.606508 5.344690 1.922177 -0.358978 -4.012026 1.405650 -0.038654 -1.953805 -1.828212 1.014138 8.399019 0.000000 0.000000 0.000000 -1.786642 0.615776 -6.871947 -1.094586 0.175048 1.002855 0.079268 -3.034792 10.036539 0.000000 0.000000 0.000000 0.720865 -0.085209 1.384945 0.159282 0.326842 -8.372912 0.200476 -4.834584 11.385808 -0.371829 1.265933 -15.272816 0.000000 0.000000 0.000000 2.224911 11.889221 -3.680114 -51.441777 10.275019 -10.756653 -3.726520 -7.325274 0.504249 0.000000 0.000000 0.000000 -3.354835 -11.726932 -3.503134 55.590832 -11.405608 -10.937854 1.853004 7.084000 0.305758 0.000000 0.000000 0.000000 
